<?xml version="1.0" encoding="UTF-8" standalone="no"?>
<!-- Created with Inkscape (http://www.inkscape.org/) -->

<svg
   xmlns:dc="http://purl.org/dc/elements/1.1/"
   xmlns:cc="http://creativecommons.org/ns#"
   xmlns:rdf="http://www.w3.org/1999/02/22-rdf-syntax-ns#"
   xmlns:svg="http://www.w3.org/2000/svg"
   xmlns="http://www.w3.org/2000/svg"
   xmlns:sodipodi="http://sodipodi.sourceforge.net/DTD/sodipodi-0.dtd"
   xmlns:inkscape="http://www.inkscape.org/namespaces/inkscape"
   width="210mm"
   height="297mm"
   viewBox="0 0 210 297"
   version="1.1"
   id="svg4881"
   inkscape:version="0.92.3 (2405546, 2018-03-11)"
   sodipodi:docname="full_logo.svg">
  <defs
     id="defs4875" />
  <sodipodi:namedview
     id="base"
     pagecolor="#ffffff"
     bordercolor="#666666"
     borderopacity="1.0"
     inkscape:pageopacity="0.0"
     inkscape:pageshadow="2"
     inkscape:zoom="0.35355339"
     inkscape:cx="2556.0015"
     inkscape:cy="-205.5538"
     inkscape:document-units="mm"
     inkscape:current-layer="layer1"
     showgrid="false"
     inkscape:window-width="2560"
     inkscape:window-height="1361"
     inkscape:window-x="2551"
     inkscape:window-y="-9"
     inkscape:window-maximized="1" />
  <metadata
     id="metadata4878">
    <rdf:RDF>
      <cc:Work
         rdf:about="">
        <dc:format>image/svg+xml</dc:format>
        <dc:type
           rdf:resource="http://purl.org/dc/dcmitype/StillImage" />
        <dc:title></dc:title>
      </cc:Work>
    </rdf:RDF>
  </metadata>
  <g
     inkscape:label="Layer 1"
     inkscape:groupmode="layer"
     id="layer1">
    <g
       transform="matrix(0.44563508,0,0,0.44563508,362.9129,-216.43236)"
       id="g1906-2-8-0-1-8-7"
       inkscape:export-xdpi="72.164398"
       inkscape:export-ydpi="72.164398"
       inkscape:export-filename="B:\Documents\Side Projects\Detour Health\detourhealth.github.io\images\full_logo.png">
      <g
         style="fill:#800000;fill-opacity:1"
         transform="matrix(1.0252023,0,0,1.0252023,134.53201,396.99271)"
         id="g1658-2-5-4-9-5-2-3-7-8">
        <path
           inkscape:connector-curvature="0"
           style="opacity:1;fill:#800000;fill-opacity:1;stroke:none;stroke-width:0.28649411"
           d="m -819.36234,186.63283 a 37.499999,37.499999 0 0 1 25.96893,10.97971 37.499999,37.499999 0 0 1 5.96916,7.90493 l -6.10298,6.10298 -6.93706,-6.93703 a 27.5,27.5 0 0 0 -38.89065,0 27.5,27.5 0 0 0 0,38.89065 27.5,27.5 0 0 0 0.0615,0.0553 l -0.003,0.003 17.93327,17.93327 a 37.499999,37.499999 0 0 1 -25.06255,-10.92078 37.499999,37.499999 0 0 1 0,-53.03293 37.499999,37.499999 0 0 1 27.06399,-10.9797 z"
           id="path1168-5-0-9-1-64-7-5-7-8-7" />
        <path
           inkscape:connector-curvature="0"
           style="opacity:1;fill:#800000;fill-opacity:1;stroke:none;stroke-width:0.28649411"
           d="m -767.42142,186.62873 a 37.499999,37.499999 0 0 1 27.06397,10.97968 37.499999,37.499999 0 0 1 0,53.03295 37.499999,37.499999 0 0 1 -25.06255,10.92078 l 17.93327,-17.93327 -0.003,-0.003 a 27.5,27.5 0 0 0 0.0615,-0.0553 27.5,27.5 0 0 0 0,-38.89065 27.5,27.5 0 0 0 -30.36041,-5.76916 l -7.46622,-7.46623 a 37.499999,37.499999 0 0 1 17.83405,-4.8152 z m -25.88681,10.90424 7.07192,7.07192 a 27.5,27.5 0 0 0 -0.0827,0.0749 l -6.93703,6.93703 -6.10299,-6.10298 a 37.499999,37.499999 0 0 1 5.96913,-7.90493 37.499999,37.499999 0 0 1 0.0816,-0.076 z"
           id="path1168-5-9-2-0-9-6-7-6-4-0-0" />
        <path
           style="opacity:1;fill:#800000;fill-opacity:1;stroke:none;stroke-width:0.26495728"
           d="m -747.48616,243.62937 -52.97455,52.97456 7.07091,7.07088 52.97453,-52.97456 z"
           id="rect1290-2-8-0-6-6-1-1-3-8-0"
           inkscape:connector-curvature="0" />
        <rect
           style="opacity:1;fill:#800000;fill-opacity:1;stroke:none;stroke-width:0.10395326"
           id="rect1515-3-6-5-2-2-8-9-0-2"
           width="50"
           height="10"
           x="371.27673"
           y="700.63055"
           transform="matrix(-0.70710678,-0.70710678,-0.70710678,0.70710678,0,0)" />
        <path
           inkscape:connector-curvature="0"
           style="opacity:1;fill:#800000;fill-opacity:1;stroke:none;stroke-width:0.12205337"
           d="m -753.13173,244.42035 -15.58322,-15.58322 7.36934,-7.36934 z"
           id="rect1406-5-6-7-4-4-3-0-5-5-1" />
        <path
           inkscape:connector-curvature="0"
           style="opacity:1;fill:#800000;fill-opacity:1;stroke:none;stroke-width:0.12205337"
           d="m -753.12962,244.399 -15.60949,-15.55691 -7.35689,7.38176 z"
           id="rect1406-5-0-0-8-3-2-7-5-9-5-6" />
        <path
           style="opacity:1;fill:#800000;fill-opacity:1;stroke:none;stroke-width:0.26495728"
           d="m -839.29344,243.62937 52.97455,52.97456 -7.07091,7.07088 -52.97453,-52.97456 z"
           id="rect1290-2-5-7-1-7-9-6-6-0-5-4"
           inkscape:connector-curvature="0" />
        <path
           inkscape:connector-curvature="0"
           style="opacity:1;fill:#800000;fill-opacity:1;stroke:none;stroke-width:0.11602315"
           d="m -753.13173,244.42035 -17.6175,-11.96403 6.26122,-7.52844 z"
           id="rect1406-5-3-3-3-0-6-9-1-2-6-5" />
      </g>
      <g
         transform="translate(0,-17.523164)"
         id="g1836-4-4-5-3-0-0">
        <text
           xml:space="preserve"
           style="font-style:normal;font-variant:normal;font-weight:normal;font-stretch:normal;font-size:74.53398895px;line-height:1.25;font-family:Corbel;-inkscape-font-specification:Corbel;letter-spacing:0px;word-spacing:0px;fill:#000000;fill-opacity:1;stroke:none;stroke-width:1.8633498"
           x="-642.60779"
           y="618.80139"
           id="text1040-5-2-8-6-3-2"
           transform="scale(0.94101263,1.062685)"><tspan
             sodipodi:role="line"
             id="tspan1038-7-2-7-9-6-9"
             x="-642.60779"
             y="618.80139"
             style="font-weight:bold;letter-spacing:-0.01514877px;stroke-width:1.8633498">Detour</tspan></text>
        <text
           xml:space="preserve"
           style="font-style:normal;font-variant:normal;font-weight:normal;font-stretch:normal;font-size:74.53398895px;line-height:1.25;font-family:Corbel;-inkscape-font-specification:Corbel;letter-spacing:0px;word-spacing:0px;fill:#000000;fill-opacity:1;stroke:none;stroke-width:1.8633498"
           x="-642.97174"
           y="682.11853"
           id="text1040-8-00-0-0-5-1-4"
           transform="scale(0.94101262,1.062685)"><tspan
             sodipodi:role="line"
             id="tspan1038-6-09-1-1-1-6-8"
             x="-642.97174"
             y="682.11853"
             style="font-weight:normal;letter-spacing:-0.01514877px;stroke-width:1.8633498">Health</tspan></text>
      </g>
    </g>
  </g>
</svg>
