<?xml version="1.0" standalone="no"?>
<!DOCTYPE svg PUBLIC "-//W3C//DTD SVG 20010904//EN"
 "http://www.w3.org/TR/2001/REC-SVG-20010904/DTD/svg10.dtd">
<svg version="1.0" xmlns="http://www.w3.org/2000/svg"
 width="1400.000000pt" height="1400.000000pt" viewBox="0 0 1400.000000 1400.000000"
 preserveAspectRatio="xMidYMid meet">
<metadata>
Created by potrace 1.11, written by Peter Selinger 2001-2013
</metadata>
<g transform="translate(0.000000,1400.000000) scale(0.100000,-0.100000)"
fill="#000000" stroke="none">
<path d="M4327 12804 c-1 -1 -67 -4 -147 -8 -80 -3 -154 -8 -165 -10 -11 -2
-49 -7 -85 -11 -36 -4 -72 -9 -80 -10 -8 -2 -37 -6 -65 -9 -56 -8 -286 -56
-296 -62 -4 -2 -23 -6 -43 -10 -111 -17 -458 -142 -646 -232 -63 -30 -117 -56
-120 -56 -14 -2 -274 -154 -350 -204 -93 -61 -315 -227 -370 -277 -19 -18 -60
-54 -90 -81 -373 -333 -710 -803 -909 -1269 -23 -55 -46 -109 -51 -120 -79
-180 -201 -653 -225 -870 -3 -33 -8 -80 -11 -105 -17 -155 -20 -236 -18 -420
1 -113 5 -232 8 -265 16 -160 20 -191 42 -320 9 -49 18 -103 21 -120 26 -158
133 -504 221 -710 57 -135 184 -388 208 -416 8 -8 14 -19 14 -23 0 -4 14 -27
30 -51 17 -24 30 -46 30 -49 0 -22 222 -320 338 -454 42 -48 1281 -1293 2754
-2767 l2679 -2680 2677 2680 c1473 1474 2696 2700 2718 2725 22 25 60 70 84
100 25 30 48 57 51 60 18 16 138 182 202 280 187 284 323 568 431 895 20 61
38 119 41 130 3 11 18 74 35 140 48 194 73 346 98 616 10 97 8 460 -3 564 -4
44 -9 91 -10 105 -5 55 -17 139 -32 220 -8 47 -17 96 -19 110 -10 58 -65 275
-90 352 -90 286 -191 518 -332 763 -67 116 -216 347 -246 378 -6 7 -33 41 -61
77 -27 36 -52 67 -55 70 -3 3 -32 37 -65 75 -88 103 -280 291 -408 399 -400
337 -892 594 -1405 736 -59 16 -118 31 -132 33 -14 3 -43 10 -65 15 -22 6 -56
13 -75 16 -19 3 -44 7 -55 10 -32 6 -126 20 -200 30 -242 32 -595 37 -805 11
-19 -2 -62 -7 -95 -10 -91 -9 -230 -32 -360 -60 -11 -3 -29 -7 -40 -9 -140
-29 -474 -139 -600 -196 -22 -10 -87 -40 -145 -66 -58 -26 -116 -55 -130 -64
-14 -10 -34 -20 -45 -24 -11 -4 -28 -13 -38 -20 -15 -12 18 -48 349 -380 201
-201 373 -366 381 -366 8 0 26 6 41 14 101 52 450 151 607 172 28 3 58 8 69
10 100 19 474 25 621 11 72 -8 265 -38 323 -52 12 -3 30 -7 40 -9 717 -164
1364 -648 1737 -1297 168 -293 287 -638 335 -979 29 -205 31 -513 5 -705 -23
-164 -26 -179 -46 -265 -11 -47 -22 -92 -24 -100 -18 -86 -89 -288 -142 -410
-105 -238 -271 -497 -439 -685 -34 -38 -1102 -1111 -2373 -2383 l-2311 -2313
-2306 2308 c-1268 1269 -2336 2342 -2373 2383 -211 236 -377 509 -496 820 -36
91 -100 295 -108 345 -3 17 -13 66 -22 110 -9 44 -18 100 -21 125 -3 25 -7 51
-10 58 -16 50 -23 394 -10 547 14 174 26 248 67 422 207 881 853 1611 1703
1924 76 29 294 95 339 103 206 39 196 37 332 53 142 16 533 9 663 -13 345 -58
587 -136 868 -280 143 -74 327 -192 429 -275 119 -98 224 -198 547 -521 208
-207 382 -378 388 -380 14 -4 2080 -2070 2080 -2080 0 -4 -79 -86 -176 -183
-97 -97 -174 -178 -172 -180 4 -4 179 -68 358 -130 143 -49 243 -85 265 -95
11 -4 211 -76 445 -159 234 -83 477 -169 540 -191 63 -23 221 -79 350 -124
129 -46 252 -91 273 -99 41 -18 41 -18 27 15 -5 13 -70 196 -146 408 -75 212
-164 464 -199 560 -35 96 -91 254 -125 350 -33 96 -65 184 -70 195 -7 19 -58
160 -82 230 -5 17 -14 39 -19 50 -4 11 -43 118 -85 237 l-76 217 -200 -200
-200 -200 -1377 1379 c-757 758 -1383 1383 -1393 1388 -9 5 -54 43 -100 85
-381 350 -773 592 -1248 770 -58 22 -112 42 -121 44 -9 2 -52 15 -96 28 -78
25 -174 51 -223 61 -14 3 -70 14 -125 26 -55 11 -118 23 -140 26 -22 2 -47 6
-55 9 -8 2 -44 7 -80 11 -36 3 -78 8 -95 10 -65 7 -394 21 -398 18z"/>
</g>
</svg>
